<svg xmlns="http://www.w3.org/2000/svg" viewBox="0 0 198.12 20.04"><defs><style>.cls-1{fill:#fff;}</style></defs><g id="Layer_2" data-name="Layer 2"><g id="Layer_1-2" data-name="Layer 1"><path class="cls-1" d="M28.92,12l-.11-.07c-.65-.48-1.77-1.2-3.62-2.64-.92-.73-2-1.56-3.05-2.33a15.2,15.2,0,0,0-3.38-1.88c-.29-.1-.55-.21-.82-.28l-.77-.19-.17,0-.18,0-.34,0-.6-.07H14.72l1.14.19.57.16.31.09.17,0,.16.06.71.29c.24.1.48.24.73.36a18.25,18.25,0,0,1,3,2.14c1,.83,2,1.72,2.93,2.47.48.36.91.69,1.33,1l.59.37.55.29a3.39,3.39,0,0,0,.39.18l-8.82.18.12-.06a3.48,3.48,0,0,0-1.18-.28c-.24,0-.52-.05-.86-.07s-.72,0-1.16,0l-.72,0-.8.08c-.57.06-1.2.18-1.9.31l-.75.18-.79,0h.61a.5.5,0,0,1-.13,0l-1.09.31c-.73.22-1.48.47-2.19.7a9.33,9.33,0,0,1-4.17.5,4.94,4.94,0,0,1-.9-.24l-.41-.18c-.13,0-.24-.14-.36-.2l-.17-.11-.16-.12-.29-.24c-.17-.18-.33-.34-.47-.5L.4,11.89c-.09-.13-.16-.26-.22-.36L0,11.22l.14.34c0,.1.09.24.16.39l.28.5c.12.18.26.37.42.58l.28.29.15.15.17.14a3.58,3.58,0,0,0,.37.28l.42.25.46.2a4.2,4.2,0,0,0,.5.17,9.39,9.39,0,0,0,4.58-.11l2.23-.57,1.06-.26,1-.22c2.15-.45,3.6-.64,4.57-.8l4.89.1a6.13,6.13,0,0,0-.81.45,13.8,13.8,0,0,0-1.11.85l-.6.51-.7.54c-1,.75-2.11,1.57-3.27,2.29A22.22,22.22,0,0,1,11.69,19a17.26,17.26,0,0,1-2.94.8c-.37.08-.68.11-.89.15l-.32,0h.33c.21,0,.52,0,.9,0a14.87,14.87,0,0,0,3.09-.42,18.4,18.4,0,0,0,3.85-1.44A23.13,23.13,0,0,0,19.22,16l.72-.58c.23-.2.43-.39.61-.56.37-.36.68-.66,1-.9A5.76,5.76,0,0,1,22.87,13a5.43,5.43,0,0,1,.69-.27c7.53.14,17.7.28,28.9.28,23.19,0,42-.59,42-.59s-18.8-.6-42-.6C43.74,11.78,35.63,11.86,28.92,12Z"/><path class="cls-1" d="M74.58,6.35a3.4,3.4,0,0,1,.26-.41L75,5.71l.23-.23A5.2,5.2,0,0,1,75.79,5a8.45,8.45,0,0,1,1.54-.86,11.11,11.11,0,0,1,2-.68c.37-.09.76-.18,1.16-.24l.61-.08c.21,0,.42,0,.63,0l.66,0,.65,0A8.63,8.63,0,0,1,87,4.2c.22.1.44.24.65.35l.64.37L89,5.3l.34.19c.12.06.23.13.35.18a7.25,7.25,0,0,0,2.89.75,5.83,5.83,0,0,0,2.67-.53,4.79,4.79,0,0,0,1-.68A4.29,4.29,0,0,0,97,4.35a3.94,3.94,0,0,0,.63-1.81,4.74,4.74,0,0,0-.06-1.4c0-.19-.08-.36-.11-.5s-.08-.26-.11-.35-.1-.29-.1-.29,0,.1,0,.3a2.84,2.84,0,0,1,0,.36c0,.14,0,.31,0,.5a5,5,0,0,1-.12,1.32A3.83,3.83,0,0,1,96.52,4a3.75,3.75,0,0,1-.71.66,4.21,4.21,0,0,1-.92.48,5.33,5.33,0,0,1-2.28.27,6.64,6.64,0,0,1-2.44-.76l-.29-.16-.3-.18-.64-.4c-.21-.14-.44-.27-.66-.4s-.45-.26-.69-.38a10,10,0,0,0-3-1A9.58,9.58,0,0,0,83.09,2h-.72l-.7.07L81,2.2l-.65.13c-.43.1-.84.23-1.22.35a12,12,0,0,0-2.07.93,8.11,8.11,0,0,0-1.5,1.11A5.17,5.17,0,0,0,75,5.3c-.07.1-.15.18-.2.27s-.1.19-.15.27a2.36,2.36,0,0,0-.21.47,1.16,1.16,0,0,0-.11.35l-.06.3a2.65,2.65,0,0,1,.11-.28A1.64,1.64,0,0,1,74.58,6.35Z"/><path class="cls-1" d="M61.76,5.84c.45.48,1,1.07,1.62,1.69a10,10,0,0,0,2.4,1.8,9.6,9.6,0,0,0,3.3,1,13.68,13.68,0,0,0,3.67,0,10.79,10.79,0,0,0,3.54-1.18,17,17,0,0,0,1.55-.91c.49-.34.93-.68,1.36-1a12.14,12.14,0,0,1,1.23-.8,6.06,6.06,0,0,1,1.15-.47,5.67,5.67,0,0,1,2.09-.16,8.27,8.27,0,0,1,1.64.34,7.76,7.76,0,0,1,1.15.47,7,7,0,0,1,1.2.75,3.72,3.72,0,0,0,.3.24,2.73,2.73,0,0,0-.16-.36,4,4,0,0,0-1-1.14,6.4,6.4,0,0,0-1.18-.72,7.18,7.18,0,0,0-1.8-.58,5.91,5.91,0,0,0-3.94.59,11.23,11.23,0,0,0-1.37.87c-.45.33-.88.67-1.33,1s-.93.6-1.42.89A10.37,10.37,0,0,1,72.58,9.3a14,14,0,0,1-3.42.2A9.44,9.44,0,0,1,66,8.8a10.63,10.63,0,0,1-2.41-1.55c-.67-.56-1.25-1.1-1.74-1.55s-.88-.79-1.16-1l-.42-.36.39.4C61,5,61.31,5.36,61.76,5.84Z"/><path class="cls-1" d="M95.54,12.42a3.11,3.11,0,0,1-.49.08c1.66,0,4,2.28,3.94,3.93a2.06,2.06,0,0,1,.07-.48A5.76,5.76,0,0,0,95.54,12.42Z"/><path class="cls-1" d="M99.14,8.41a2.27,2.27,0,0,1-.08.49,5.78,5.78,0,0,0,3.53,3.52,2.94,2.94,0,0,1,.49-.08C101.42,12.38,99.11,10.06,99.14,8.41Z"/><path class="cls-1" d="M197.94,11.53c-.06.1-.12.23-.21.36s-.21.29-.34.45-.3.32-.46.5-.2.15-.3.24l-.15.12-.18.11c-.12.06-.23.15-.36.2l-.4.18a5.17,5.17,0,0,1-.9.24,9.37,9.37,0,0,1-4.18-.5c-.7-.23-1.46-.48-2.19-.7l-1.09-.31a.53.53,0,0,1-.12,0h.6l-.78,0-.76-.18c-.7-.13-1.32-.25-1.89-.31l-.81-.08-.71,0c-.45,0-.83,0-1.17,0s-.61,0-.85.07a3.63,3.63,0,0,0-1.19.28l.12.06L170.81,12l.38-.18.55-.29.59-.37c.42-.26.85-.59,1.34-1,1-.75,1.93-1.64,2.93-2.47a18.62,18.62,0,0,1,3-2.14c.26-.12.5-.26.74-.36l.7-.29.17-.06.16,0,.32-.09.57-.16,1.13-.19h-1.16l-.6.07-.33,0-.18,0-.18,0-.77.19c-.27.07-.53.18-.81.28A15.26,15.26,0,0,0,176,6.93c-1.09.77-2.12,1.6-3,2.33-1.84,1.44-3,2.16-3.62,2.64l-.11.07c-6.71-.11-14.81-.19-23.53-.19-23.2,0-42,.6-42,.6s18.8.59,42,.59c11.19,0,21.37-.14,28.9-.28a5.43,5.43,0,0,1,.68.27,5.76,5.76,0,0,1,1.36.95c.28.24.59.54,1,.9.18.17.38.36.61.56l.73.58a23.53,23.53,0,0,0,3.5,2.22,18.6,18.6,0,0,0,3.85,1.44,14.87,14.87,0,0,0,3.09.42c.39,0,.7,0,.91,0h.33l-.33,0c-.21,0-.51-.07-.89-.15a17.19,17.19,0,0,1-2.93-.8,21.81,21.81,0,0,1-3.53-1.75c-1.17-.72-2.29-1.54-3.28-2.29l-.69-.54-.61-.51a12.23,12.23,0,0,0-1.11-.85,5.56,5.56,0,0,0-.81-.45l4.89-.1c1,.16,2.42.35,4.57.8l1,.22,1.07.26,2.23.57a9.34,9.34,0,0,0,4.57.11,3.67,3.67,0,0,0,.5-.17l.47-.2.42-.25c.13-.08.25-.19.37-.28l.17-.14.15-.15.28-.29c.15-.21.3-.4.41-.58s.2-.35.28-.5.12-.29.17-.39.13-.34.13-.34Z"/><path class="cls-1" d="M101.12,4.35a4.29,4.29,0,0,0,.75.86,5.33,5.33,0,0,0,1,.68,5.86,5.86,0,0,0,2.67.53,7.34,7.34,0,0,0,2.9-.75l.35-.18.33-.19.63-.38.64-.37c.22-.11.43-.25.65-.35a10.3,10.3,0,0,1,2.65-1,9.83,9.83,0,0,1,1.33-.14l.66,0,.65,0c.21,0,.43,0,.63,0l.61.08c.4.06.79.15,1.16.24a11.5,11.5,0,0,1,2,.68,8.34,8.34,0,0,1,1.53.86,5.37,5.37,0,0,1,.55.47c.07.08.16.15.22.23l.18.23a2.61,2.61,0,0,1,.27.41,1.64,1.64,0,0,1,.16.33l.11.28s0-.1-.07-.3a1.46,1.46,0,0,0-.1-.35,3.11,3.11,0,0,0-.21-.47l-.16-.27c0-.09-.12-.17-.19-.27a6.42,6.42,0,0,0-.51-.58,8.21,8.21,0,0,0-1.51-1.11A11.93,11.93,0,0,0,119,2.68c-.39-.12-.79-.25-1.22-.35l-.66-.13c-.22,0-.45-.06-.67-.09l-.7-.07H115a9.78,9.78,0,0,0-1.51.09,10,10,0,0,0-3,1c-.25.12-.46.26-.69.38s-.46.26-.67.4l-.63.4-.3.18-.29.16a6.63,6.63,0,0,1-2.45.76,5.27,5.27,0,0,1-2.27-.27,4.53,4.53,0,0,1-.93-.48,4,4,0,0,1-.7-.66,3.7,3.7,0,0,1-.74-1.52,5.06,5.06,0,0,1-.13-1.32,3.49,3.49,0,0,1,0-.5c0-.14,0-.26,0-.36s.05-.3.05-.3,0,.1-.1.29a3.19,3.19,0,0,0-.1.35,4.24,4.24,0,0,0-.11.5,5.06,5.06,0,0,0-.07,1.4A4.19,4.19,0,0,0,101.12,4.35Z"/><path class="cls-1" d="M121,7.22c-.45-.31-.89-.65-1.34-1a11.23,11.23,0,0,0-1.37-.87,5.91,5.91,0,0,0-3.94-.59,7,7,0,0,0-1.79.58,6.4,6.4,0,0,0-1.18.72,3.9,3.9,0,0,0-1,1.14,1.75,1.75,0,0,0-.15.36,3,3,0,0,0,.29-.24,7.69,7.69,0,0,1,2.36-1.22,8.27,8.27,0,0,1,1.64-.34,5.7,5.7,0,0,1,2.09.16,6.34,6.34,0,0,1,1.15.47,13.29,13.29,0,0,1,1.22.8l1.36,1a17,17,0,0,0,1.55.91,10.87,10.87,0,0,0,3.54,1.18,13.68,13.68,0,0,0,3.67,0,9.66,9.66,0,0,0,3.31-1,10.45,10.45,0,0,0,2.4-1.8c.64-.62,1.16-1.21,1.61-1.69s.81-.87,1.06-1.12l.4-.4-.43.36c-.28.23-.67.58-1.16,1s-1.06,1-1.74,1.55a10.55,10.55,0,0,1-2.4,1.55,9.55,9.55,0,0,1-3.13.7,14.08,14.08,0,0,1-3.42-.2,10.31,10.31,0,0,1-3.16-1.19A16.35,16.35,0,0,1,121,7.22Z"/><path class="cls-1" d="M99.06,8.9A2.22,2.22,0,0,1,99,8.41c0,1.65-2.28,4-3.94,3.93a3.11,3.11,0,0,1,.49.08A5.76,5.76,0,0,1,99.06,16a2.83,2.83,0,0,1,.08.48c0-1.65,2.28-4,3.94-3.93a2.94,2.94,0,0,1-.49-.08A5.78,5.78,0,0,1,99.06,8.9Z"/></g></g></svg>