<svg xmlns="http://www.w3.org/2000/svg" viewBox="0 0 244.76 16.87"><defs><style>.cls-1{fill:#fff;}</style></defs><g id="Layer_2" data-name="Layer 2"><g id="Layer_1-2" data-name="Layer 1"><path class="cls-1" d="M125.24,6.44s-.14.94,2.8,3.43c2.38,2-5.56,4.85-5.66,7-.1-2.15-8-5-5.66-7,3-2.49,2.8-3.43,2.8-3.43-3.24,3.34-11.37-1.13-11.37-1.13,11.06,1.91,13.35-2.12,13.35-2.12a1.48,1.48,0,0,1,1.81,0s2.24,4,13.31,2.08C136.62,5.31,128.48,9.78,125.24,6.44Z"/><path class="cls-1" d="M242.11,7.53c-.93-1.12-1.29-1.06-1.29-1.06,1.26,1.22-.43,4.3-.43,4.3.72-4.19-.8-5-.8-5a.47.47,0,0,1-.1-.3c1.57,0,3,0,4.32,0l-4.32,0A.81.81,0,0,1,239.6,5s1.51-.84.79-5c0,0,1.69,3.08.43,4.3,0,0,.36.06,1.29-1.06.77-.9,1.84,2.11,2.65,2.14C244,5.42,242.88,8.43,242.11,7.53Z"/><path class="cls-1" d="M177.68,7.86c-9-1-14-1.65-29-2.48,15-.82,20-1.48,29-2.47,14.47.9,45.17,2.22,61.81,2.44v.07C222.85,5.64,192.15,7,177.68,7.86Z"/><path class="cls-1" d="M239.49,5.42V5.35l4.32,0C242.51,5.38,241.06,5.4,239.49,5.42Z"/><path class="cls-1" d="M239.49,5.42V5.35l4.32,0C242.51,5.38,241.06,5.4,239.49,5.42Z"/><path class="cls-1" d="M146.21,6.92a1.54,1.54,0,1,1,1.53-1.54A1.53,1.53,0,0,1,146.21,6.92Z"/><path class="cls-1" d="M140,6.92a1.54,1.54,0,1,1,1.53-1.54A1.53,1.53,0,0,1,140,6.92Z"/><path class="cls-1" d="M5.28,5.42a.51.51,0,0,1-.11.3s-1.52.86-.8,5.05c0,0-1.69-3.08-.43-4.3,0,0-.35-.06-1.29,1.06C1.89,8.43.81,5.42,0,5.38c.81,0,1.89-3,2.65-2.14C3.59,4.36,3.94,4.3,3.94,4.3,2.68,3.08,4.37,0,4.37,0c-.72,4.19.79,5,.79,5a.81.81,0,0,1,.11.32L1,5.38C2.25,5.38,3.7,5.4,5.28,5.42Z"/><path class="cls-1" d="M5.28,5.42s0,0,0-.07c16.64-.22,47.34-1.54,61.81-2.44,9,1,14,1.65,29,2.47-15,.83-20,1.49-29,2.48C52.61,7,21.91,5.64,5.28,5.42Z"/><path class="cls-1" d="M1,5.38l4.31,0s0,.05,0,.07C3.7,5.4,2.25,5.38,1,5.38Z"/><path class="cls-1" d="M1,5.38l4.31,0s0,.05,0,.07C3.7,5.4,2.25,5.38,1,5.38Z"/><path class="cls-1" d="M98.56,6.92a1.54,1.54,0,1,1,1.53-1.54A1.54,1.54,0,0,1,98.56,6.92Z"/><path class="cls-1" d="M104.75,6.92a1.54,1.54,0,1,1,1.53-1.54A1.54,1.54,0,0,1,104.75,6.92Z"/></g></g></svg>