<svg width="28" height="31" viewBox="0 0 28 31" fill="none" xmlns="http://www.w3.org/2000/svg">
<path d="M18.576 14.725C18.576 15.6705 17.856 16.4455 16.944 16.4455C16.048 16.4455 15.312 15.6705 15.312 14.725C15.312 13.7795 16.032 13.0045 16.944 13.0045C17.856 13.0045 18.576 13.7795 18.576 14.725ZM11.104 13.0045C10.192 13.0045 9.472 13.7795 9.472 14.725C9.472 15.6705 10.208 16.4455 11.104 16.4455C12.016 16.4455 12.736 15.6705 12.736 14.725C12.752 13.7795 12.016 13.0045 11.104 13.0045ZM28 3.193V31C23.9691 27.5492 25.2583 28.6915 20.576 24.4745L21.424 27.342H3.28C1.472 27.342 0 25.916 0 24.149V3.193C0 1.426 1.472 0 3.28 0H24.72C26.528 0 28 1.426 28 3.193ZM23.44 17.887C23.44 12.896 21.136 8.8505 21.136 8.8505C18.832 7.1765 16.64 7.223 16.64 7.223L16.416 7.471C19.136 8.277 20.4 9.4395 20.4 9.4395C16.5993 7.42153 12.1348 7.42117 8.448 8.99C7.856 9.2535 7.504 9.4395 7.504 9.4395C7.504 9.4395 8.832 8.215 11.712 7.409L11.552 7.223C11.552 7.223 9.36 7.1765 7.056 8.8505C7.056 8.8505 4.752 12.896 4.752 17.887C4.752 17.887 6.096 20.1345 9.632 20.243C9.632 20.243 10.224 19.5455 10.704 18.9565C8.672 18.3675 7.904 17.1275 7.904 17.1275C8.13937 17.2871 8.5275 17.494 8.56 17.515C11.2606 18.9801 15.0968 19.4601 18.544 18.0575C19.104 17.856 19.728 17.5615 20.384 17.143C20.384 17.143 19.584 18.414 17.488 18.9875C17.968 19.5765 18.544 20.243 18.544 20.243C22.08 20.1345 23.44 17.887 23.44 17.887Z" fill="black"/>
</svg>
