<svg width="764" height="642" viewBox="0 0 764 642" fill="none" xmlns="http://www.w3.org/2000/svg">
<path d="M622.707 8.70708C623.098 8.31655 623.098 7.68339 622.707 7.29286L616.343 0.928903C615.953 0.538378 615.319 0.538378 614.929 0.928903C614.538 1.31943 614.538 1.95259 614.929 2.34312L620.586 7.99997L614.929 13.6568C614.538 14.0473 614.538 14.6805 614.929 15.071C615.319 15.4616 615.953 15.4616 616.343 15.071L622.707 8.70708ZM234 9L235.98 9L235.98 7L234 7L234 9ZM239.939 9L243.898 9L243.898 7L239.939 7L239.939 9ZM247.857 9L251.816 9L251.816 7L247.857 7L247.857 9ZM255.776 9L259.735 9L259.735 7L255.776 7L255.776 9ZM263.694 9L267.653 9L267.653 7L263.694 7L263.694 9ZM271.612 9L275.571 9L275.571 7L271.612 7L271.612 9ZM279.531 9L283.49 9L283.49 7L279.531 7L279.531 9ZM287.449 9L291.408 9L291.408 7L287.449 7L287.449 9ZM295.367 9L299.327 9L299.327 7L295.367 7L295.367 9ZM303.286 9L307.245 9L307.245 7L303.286 7L303.286 9ZM311.204 9L315.163 9L315.163 7L311.204 7L311.204 9ZM319.122 9L323.082 9L323.082 7L319.122 7L319.122 9ZM327.041 9L331 9L331 7L327.041 7L327.041 9ZM334.959 8.99999L338.918 8.99999L338.918 6.99999L334.959 6.99999L334.959 8.99999ZM342.878 8.99999L346.837 8.99999L346.837 6.99999L342.878 6.99999L342.878 8.99999ZM350.796 8.99999L354.755 8.99999L354.755 6.99999L350.796 6.99999L350.796 8.99999ZM358.714 8.99999L362.673 8.99999L362.673 6.99999L358.714 6.99999L358.714 8.99999ZM366.633 8.99999L370.592 8.99999L370.592 6.99999L366.633 6.99999L366.633 8.99999ZM374.551 8.99999L378.51 8.99999L378.51 6.99999L374.551 6.99999L374.551 8.99999ZM382.469 8.99999L386.429 8.99999L386.429 6.99999L382.469 6.99999L382.469 8.99999ZM390.388 8.99999L394.347 8.99999L394.347 6.99999L390.388 6.99999L390.388 8.99999ZM398.306 8.99999L402.265 8.99999L402.265 6.99999L398.306 6.99999L398.306 8.99999ZM406.224 8.99999L410.184 8.99999L410.184 6.99999L406.224 6.99999L406.224 8.99999ZM414.143 8.99999L418.102 8.99999L418.102 6.99999L414.143 6.99999L414.143 8.99999ZM422.061 8.99999L426.02 8.99999L426.02 6.99999L422.061 6.99999L422.061 8.99999ZM429.98 8.99999L433.939 8.99999L433.939 6.99999L429.98 6.99999L429.98 8.99999ZM437.898 8.99999L441.857 8.99999L441.857 6.99999L437.898 6.99999L437.898 8.99999ZM445.816 8.99999L449.775 8.99998L449.775 6.99998L445.816 6.99999L445.816 8.99999ZM453.735 8.99998L457.694 8.99998L457.694 6.99998L453.735 6.99998L453.735 8.99998ZM461.653 8.99998L465.612 8.99998L465.612 6.99998L461.653 6.99998L461.653 8.99998ZM469.571 8.99998L473.531 8.99998L473.531 6.99998L469.571 6.99998L469.571 8.99998ZM477.49 8.99998L481.449 8.99998L481.449 6.99998L477.49 6.99998L477.49 8.99998ZM485.408 8.99998L489.367 8.99998L489.367 6.99998L485.408 6.99998L485.408 8.99998ZM493.326 8.99998L497.286 8.99998L497.286 6.99998L493.326 6.99998L493.326 8.99998ZM501.245 8.99998L505.204 8.99998L505.204 6.99998L501.245 6.99998L501.245 8.99998ZM509.163 8.99998L513.122 8.99998L513.122 6.99998L509.163 6.99998L509.163 8.99998ZM517.082 8.99998L521.041 8.99998L521.041 6.99998L517.082 6.99998L517.082 8.99998ZM525 8.99998L528.959 8.99998L528.959 6.99998L525 6.99998L525 8.99998ZM532.918 8.99998L536.878 8.99998L536.878 6.99998L532.918 6.99998L532.918 8.99998ZM540.837 8.99998L544.796 8.99998L544.796 6.99998L540.837 6.99998L540.837 8.99998ZM548.755 8.99998L552.714 8.99998L552.714 6.99998L548.755 6.99998L548.755 8.99998ZM556.674 8.99998L560.633 8.99998L560.633 6.99998L556.674 6.99998L556.674 8.99998ZM564.592 8.99997L568.551 8.99997L568.551 6.99997L564.592 6.99997L564.592 8.99997ZM572.51 8.99997L576.47 8.99997L576.47 6.99997L572.51 6.99997L572.51 8.99997ZM580.429 8.99997L584.388 8.99997L584.388 6.99997L580.429 6.99997L580.429 8.99997ZM588.347 8.99997L592.306 8.99997L592.306 6.99997L588.347 6.99997L588.347 8.99997ZM596.266 8.99997L600.225 8.99997L600.225 6.99997L596.266 6.99997L596.266 8.99997ZM604.184 8.99997L608.143 8.99997L608.143 6.99997L604.184 6.99997L604.184 8.99997ZM612.102 8.99997L616.062 8.99997L616.062 6.99997L612.102 6.99997L612.102 8.99997ZM620.021 8.99997L622 8.99997L622 6.99997L620.021 6.99997L620.021 8.99997Z" fill="white"/>
<path d="M658.707 634.707C659.098 634.317 659.098 633.684 658.707 633.293L652.343 626.929C651.953 626.539 651.319 626.539 650.929 626.929C650.538 627.32 650.538 627.953 650.929 628.343L656.586 634L650.929 639.657C650.538 640.048 650.538 640.681 650.929 641.071C651.319 641.462 651.953 641.462 652.343 641.071L658.707 634.707ZM240 635H242.01V633H240V635ZM246.029 635H250.048V633H246.029V635ZM254.067 635H258.087V633H254.067V635ZM262.106 635H266.125V633H262.106V635ZM270.144 635H274.163V633H270.144V635ZM278.183 635H282.202V633H278.183V635ZM286.221 635H290.24V633H286.221V635ZM294.26 635H298.279V633H294.26V635ZM302.298 635H306.317V633H302.298V635ZM310.337 635H314.356V633H310.337V635ZM318.375 635H322.394V633H318.375V635ZM326.413 635H330.433V633H326.413V635ZM334.452 635H338.471V633H334.452V635ZM342.49 635H346.51V633H342.49V635ZM350.529 635H354.548V633H350.529V635ZM358.567 635H362.587V633H358.567V635ZM366.606 635H370.625V633H366.606V635ZM374.644 635H378.663V633H374.644V635ZM382.683 635H386.702V633H382.683V635ZM390.721 635H394.74V633H390.721V635ZM398.76 635H402.779V633H398.76V635ZM406.798 635H410.817V633H406.798V635ZM414.837 635H418.856V633H414.837V635ZM422.875 635H426.894V633H422.875V635ZM430.913 635H434.933V633H430.913V635ZM438.952 635H442.971V633H438.952V635ZM446.99 635H451.01V633H446.99V635ZM455.029 635H459.048V633H455.029V635ZM463.067 635H467.086V633H463.067V635ZM471.106 635H475.125V633H471.106V635ZM479.144 635H483.163V633H479.144V635ZM487.183 635H491.202V633H487.183V635ZM495.221 635H499.24V633H495.221V635ZM503.259 635H507.279V633H503.259V635ZM511.298 635H515.317V633H511.298V635ZM519.336 635H523.356V633H519.336V635ZM527.375 635H531.394V633H527.375V635ZM535.413 635H539.433V633H535.413V635ZM543.452 635H547.471V633H543.452V635ZM551.49 635H555.509V633H551.49V635ZM559.529 635H563.548V633H559.529V635ZM567.567 635H571.586V633H567.567V635ZM575.606 635H579.625V633H575.606V635ZM583.644 635H587.663V633H583.644V635ZM591.682 635H595.702V633H591.682V635ZM599.721 635H603.74V633H599.721V635ZM607.759 635H611.779V633H607.759V635ZM615.798 635H619.817V633H615.798V635ZM623.836 635H627.855V633H623.836V635ZM631.875 635H635.894V633H631.875V635ZM639.913 635H643.932V633H639.913V635ZM647.952 635H651.971V633H647.952V635ZM655.99 635H658V633H655.99V635Z" fill="white"/>
<path d="M750.707 72.2929C750.317 71.9024 749.683 71.9024 749.293 72.2929L742.929 78.6568C742.538 79.0474 742.538 79.6805 742.929 80.0711C743.319 80.4616 743.953 80.4616 744.343 80.0711L750 74.4142L755.657 80.0711C756.047 80.4616 756.681 80.4616 757.071 80.0711C757.462 79.6805 757.462 79.0474 757.071 78.6568L750.707 72.2929ZM751 301L751 73L749 73L749 301L751 301Z" fill="white"/>
<path d="M142.293 286.707C142.683 287.098 143.317 287.098 143.707 286.707L150.071 280.343C150.462 279.953 150.462 279.319 150.071 278.929C149.681 278.538 149.047 278.538 148.657 278.929L143 284.586L137.343 278.929C136.953 278.538 136.319 278.538 135.929 278.929C135.538 279.319 135.538 279.953 135.929 280.343L142.293 286.707ZM144 286L144 100L142 100L142 286L144 286Z" fill="white"/>
<path d="M629.707 340.707C630.098 340.317 630.098 339.683 629.707 339.293L623.343 332.929C622.953 332.538 622.319 332.538 621.929 332.929C621.538 333.319 621.538 333.953 621.929 334.343L627.586 340L621.929 345.657C621.538 346.047 621.538 346.681 621.929 347.071C622.319 347.462 622.953 347.462 623.343 347.071L629.707 340.707ZM629 339L234 339V341L629 341V339Z" fill="white"/>
<path d="M142.293 554.707C142.683 555.098 143.317 555.098 143.707 554.707L150.071 548.343C150.462 547.953 150.462 547.319 150.071 546.929C149.681 546.538 149.047 546.538 148.657 546.929L143 552.586L137.343 546.929C136.953 546.538 136.319 546.538 135.929 546.929C135.538 547.319 135.538 547.953 135.929 548.343L142.293 554.707ZM144 554L144 552.048L142 552.048L142 554L144 554ZM144 548.143L144 544.238L142 544.238L142 548.143L144 548.143ZM144 540.333L144 536.429L142 536.429L142 540.333L144 540.333ZM144 532.524L144 528.619L142 528.619L142 532.524L144 532.524ZM144 524.714L144 520.81L142 520.81L142 524.714L144 524.714ZM144 516.905L144 513L142 513L142 516.905L144 516.905ZM144 509.095L144 505.19L142 505.19L142 509.095L144 509.095ZM144 501.286L144 497.381L142 497.381L142 501.286L144 501.286ZM144 493.476L144 489.571L142 489.571L142 493.476L144 493.476ZM144 485.667L144 481.762L142 481.762L142 485.667L144 485.667ZM144 477.857L144 473.952L142 473.952L142 477.857L144 477.857ZM144 470.048L144 466.143L142 466.143L142 470.048L144 470.048ZM144 462.238L144 458.333L142 458.333L142 462.238L144 462.238ZM144 454.429L144 450.524L142 450.524L142 454.429L144 454.429ZM144 446.619L144 442.714L142 442.714L142 446.619L144 446.619ZM144 438.81L144 434.905L142 434.905L142 438.81L144 438.81ZM144 431L144 427.095L142 427.095L142 431L144 431ZM144 423.19L144 419.286L142 419.286L142 423.19L144 423.19ZM144 415.381L144 411.476L142 411.476L142 415.381L144 415.381ZM144 407.571L144 403.667L142 403.667L142 407.571L144 407.571ZM144 399.762L144 395.857L142 395.857L142 399.762L144 399.762ZM144 391.952L144 390L142 390L142 391.952L144 391.952Z" fill="white"/>
<path d="M1 632L1.00001 353" stroke="white" stroke-width="2" stroke-dasharray="4 4"/>
<path d="M59 632H3" stroke="white" stroke-width="2" stroke-dasharray="4 4"/>
<path d="M31.7071 353.707C32.0976 353.317 32.0976 352.683 31.7071 352.293L25.3431 345.929C24.9526 345.538 24.3195 345.538 23.9289 345.929C23.5384 346.319 23.5384 346.953 23.9289 347.343L29.5858 353L23.9289 358.657C23.5384 359.047 23.5384 359.681 23.9289 360.071C24.3195 360.462 24.9526 360.462 25.3431 360.071L31.7071 353.707ZM31 352H29.125V354H31V352ZM25.375 352H21.625V354H25.375V352ZM17.875 352H14.125V354H17.875V352ZM10.375 352H6.625V354H10.375V352ZM2.875 352H0.999998V354H2.875V352Z" fill="white"/>
<path d="M693 301L693 169" stroke="white" stroke-width="2"/>
<path d="M763 589L763 480" stroke="white" stroke-width="2" stroke-dasharray="4 4"/>
<path d="M424 480L424 371" stroke="white" stroke-width="2" stroke-dasharray="4 4"/>
<path d="M193.707 99.2929C193.317 98.9024 192.683 98.9024 192.293 99.2929L185.929 105.657C185.538 106.047 185.538 106.681 185.929 107.071C186.319 107.462 186.953 107.462 187.343 107.071L193 101.414L198.657 107.071C199.047 107.462 199.681 107.462 200.071 107.071C200.462 106.681 200.462 106.047 200.071 105.657L193.707 99.2929ZM194 169L194 100L192 100L192 169L194 169Z" fill="white"/>
<path d="M245.293 370.293C244.902 370.683 244.902 371.317 245.293 371.707L251.657 378.071C252.047 378.462 252.681 378.462 253.071 378.071C253.462 377.681 253.462 377.047 253.071 376.657L247.414 371L253.071 365.343C253.462 364.953 253.462 364.319 253.071 363.929C252.681 363.538 252.047 363.538 251.657 363.929L245.293 370.293ZM424 370H421.977V372H424V370ZM417.932 370H413.886V372H417.932V370ZM409.841 370H405.795V372H409.841V370ZM401.75 370H397.705V372H401.75V370ZM393.659 370H389.614V372H393.659V370ZM385.568 370H381.523V372H385.568V370ZM377.477 370H373.432V372H377.477V370ZM369.386 370H365.341V372H369.386V370ZM361.295 370H357.25V372H361.295V370ZM353.205 370H349.159V372H353.205V370ZM345.114 370H341.068V372H345.114V370ZM337.023 370H332.977V372H337.023V370ZM328.932 370H324.886V372H328.932V370ZM320.841 370H316.795V372H320.841V370ZM312.75 370H308.705V372H312.75V370ZM304.659 370H300.614V372H304.659V370ZM296.568 370H292.523V372H296.568V370ZM288.477 370H284.432V372H288.477V370ZM280.386 370H276.341V372H280.386V370ZM272.295 370H268.25V372H272.295V370ZM264.205 370H260.159V372H264.205V370ZM256.114 370H252.068V372H256.114V370ZM248.023 370H246V372H248.023V370Z" fill="white"/>
<path d="M693 169L193 169" stroke="white" stroke-width="2"/>
<path d="M763 480L424 480" stroke="white" stroke-width="2" stroke-dasharray="4 4"/>
</svg>
