<svg id="Layer_1" data-name="Layer 1" xmlns="http://www.w3.org/2000/svg" viewBox="0 0 419.29 643.54"><defs><style>.cls-1{fill:#fff;fill-rule:evenodd;}.cls-2{fill:#ff473e;}</style></defs><title>icon--rewards</title><path class="cls-1" d="M449,262a10.41,10.41,0,0,1-10.43,10.37H261.4A10.41,10.41,0,0,1,251,262v-7.3H449Zm35.68,197.51c0,73.8-60.44,133.85-134.72,133.85s-134.71-60-134.71-133.85S275.72,325.64,350,325.64s134.72,60,134.72,133.85ZM557.56,5.7A12.76,12.76,0,0,0,546.92,0H403.07A12.72,12.72,0,0,0,391.4,7.61L363.83,70.83,433,229.4H405.33L308.61,7.61A12.74,12.74,0,0,0,296.93,0H153.08A12.78,12.78,0,0,0,142.44,5.7a12.55,12.55,0,0,0-1,12l92.34,211.75H209.9a12.64,12.64,0,1,0,0,25.28h15.61V262a35.81,35.81,0,0,0,35.89,35.65h44.5a53.93,53.93,0,0,0-10.66,30.51,55,55,0,0,0-76.23,1.2,54.19,54.19,0,0,0-1.21,75.75,54.42,54.42,0,0,0,0,108.8,54.62,54.62,0,0,0,77.44,76.94,54.8,54.8,0,0,0,109.52,0,55.1,55.1,0,0,0,76.23-1.2,54.25,54.25,0,0,0,1.21-75.74,54.42,54.42,0,0,0,0-108.8A54.19,54.19,0,0,0,481,329.34a55.12,55.12,0,0,0-76.23-1.2,53.85,53.85,0,0,0-10.66-30.51h44.51A35.81,35.81,0,0,0,474.49,262v-7.29h15.62a12.64,12.64,0,1,0,0-25.28H466.25L558.59,17.66a12.55,12.55,0,0,0-1-12ZM240.73,459.49c0,59.86,49,108.56,109.28,108.56s109.27-48.7,109.27-108.56S410.25,350.93,350,350.93s-109.28,48.7-109.28,108.56" transform="translate(-140.36 0.01)"/><g id="Page-1"><path id="Path" class="cls-2" d="M402.31,503.13a8,8,0,0,0-7.84,6.35L364.19,508a8.4,8.4,0,0,0,.18-1.73,11.61,11.61,0,0,0-.47-3.11l11-6.34a8.15,8.15,0,1,0,2.31-12.17A8.12,8.12,0,0,0,374,495.4l-10.67,6.17a11.15,11.15,0,0,0-20.59,8.48l-19.84,4.79a11.07,11.07,0,0,0-3.17-7.21l3.57-5a8.05,8.05,0,1,0-1.61-.75l-3.29,4.56a11.38,11.38,0,0,0-8.13-2.14l-3.41-19.43a11.13,11.13,0,1,0-7.61-20.71l-8.59-16.78a11.3,11.3,0,0,0,4.44-4.1l7.15,1.91a7.46,7.46,0,0,0-.11,1.15,8.14,8.14,0,0,0,7.32,8.08,8.07,8.07,0,1,0-6.81-10.91l-6.74-1.78a11,11,0,0,0,.52-6.92l19.89-9.17a11.2,11.2,0,0,0,15.23,2.13,11.07,11.07,0,0,0,2.88-15.05l12.69-12.4a11.2,11.2,0,0,0,5.13,1.73v5.48a8,8,0,1,0,1.73,0v-5.48a11,11,0,0,0,4.5-1.33l13.9,15.86a11.15,11.15,0,1,0,19.38,2.94l4.33-2.42a8.14,8.14,0,1,0-.93-1.44L391.07,418a11.11,11.11,0,0,0-17.48-2.66L360,399.84a11.58,11.58,0,0,0,3.17-3.92l11.94,2a8,8,0,0,0,15.75-2.66,8,8,0,0,0-16,.81l-11.07-1.84a11.23,11.23,0,0,0-6-13.33,11.16,11.16,0,0,0-12.11,18.46l-12.34,12.05a11.19,11.19,0,0,0-7.5-3.8v-8.42a8.06,8.06,0,0,0,7.15-8.42,7.94,7.94,0,0,0-8-7.56,8,8,0,0,0-.86,16v8.37a11.15,11.15,0,0,0-8.83,16.66L296,433.12a10.9,10.9,0,0,0-3.17-4.27l7.56-13.61a8.21,8.21,0,0,0,2,.29,8.08,8.08,0,1,0-3.7-.93l-7.32,13.27a11.16,11.16,0,1,0-2.25,20.24l8.71,17a11.07,11.07,0,0,0-4.27,6.69L287.2,470a7.77,7.77,0,0,0,.23-2,8,8,0,1,0-.87,3.63l6.75,2v.52a11,11,0,0,0,5.13,9.35l-4.32,5.65a7.85,7.85,0,1,0,1.21,1.27l4.67-6.12a10.77,10.77,0,0,0,4.5.93,2.69,2.69,0,0,0,.69-.06l3.46,19.55a11.29,11.29,0,0,0-8,10.38,11.15,11.15,0,0,0,20,7l16.15,7.21a9,9,0,0,0-.23,1.78,8,8,0,1,0,.8-3.46l-15.74-7a10.44,10.44,0,0,0,1.27-4.1l20.53-5a11.1,11.1,0,0,0,16.67,3.41l7.67,6.63A8.06,8.06,0,0,0,382,529,8.07,8.07,0,0,0,368.69,520l-7.32-6.28a11.51,11.51,0,0,0,2.42-4.1l30.51,1.5a8,8,0,0,0,8.07,8,8,8,0,1,0-.06-15.92Z" transform="translate(-140.36 0.01)"/></g></svg>