<svg xmlns="http://www.w3.org/2000/svg" viewBox="0 0 501.09 500.56"><defs><style>.cls-1{fill:#fff;}</style></defs><g id="Layer_2" data-name="Layer 2"><g id="Layer_1-2" data-name="Layer 1"><path class="cls-1" d="M495.3,166.1A17.87,17.87,0,0,0,470,166l-.11.1L455.8,180.4,320.16,44.75l14.29-14.12A17.94,17.94,0,0,0,309.08,5.26L268.15,45.65a183.7,183.7,0,0,0-48.43,174.78A183.72,183.72,0,0,0,45.65,268.15L5.26,309.08a17.94,17.94,0,0,0,25.37,25.37l14.12-14.29L180.4,455.8l-14.3,14.12a17.95,17.95,0,0,0,25.38,25.38l40.93-40.39a183.74,183.74,0,0,0,48.43-174.79,183.73,183.73,0,0,0,174.07-47.71l40.39-40.22A17.77,17.77,0,0,0,496.38,167,4.58,4.58,0,0,0,495.3,166.1ZM206.49,429l-.89.89L70,295v-.9a147.92,147.92,0,0,1,31.46-23.59L229.19,398.26A147.84,147.84,0,0,1,206.49,429Zm38.25-67.38L137.51,254.39a147.24,147.24,0,0,1,98.29,8.22,147.22,147.22,0,0,1,8.94,99.72ZM264,236.52a147.27,147.27,0,0,1-8.22-98.3L363.05,245.45A147.28,147.28,0,0,1,264,236.52Zm165-30a147.58,147.58,0,0,1-31.46,23.59L270.47,102.3a148.09,148.09,0,0,1,23.59-30.74h.9L430.6,207.21Z"/></g></g></svg>