<svg width="32" height="32" viewBox="0 0 32 32" fill="none" xmlns="http://www.w3.org/2000/svg">
<path d="M25.879 0.521015H20.4134C19.613 0.521015 18.8736 0.947965 18.4736 1.64091C18.0732 2.33427 18.0732 3.18822 18.4736 3.88112C18.8736 4.57409 19.6131 5.00101 20.4134 5.00101H25.879C26.1759 5.00101 26.4607 5.11898 26.6708 5.32913C26.881 5.53928 26.999 5.82405 26.999 6.12093V11.5865C26.999 12.3869 27.4259 13.1263 28.1189 13.5263C28.8118 13.9267 29.6658 13.9267 30.3591 13.5263C31.052 13.1263 31.479 12.3868 31.479 11.5865V6.12093C31.479 4.63573 30.8887 3.21154 29.8388 2.16114C28.7884 1.11114 27.3642 0.520935 25.879 0.520935L25.879 0.521015Z" fill="white"/>
<path d="M11.587 26.998H6.12139C5.50303 26.998 5.00148 26.4965 5.00148 25.8781V20.4125C5.00148 19.6121 4.57453 18.8727 3.88158 18.4727C3.18861 18.0723 2.33469 18.0723 1.64138 18.4727C0.948415 18.8727 0.521484 19.6122 0.521484 20.4125V25.8781C0.521484 27.3633 1.11172 28.7875 2.16169 29.8379C3.21209 30.8879 4.63628 31.4781 6.12148 31.4781H11.5871C12.3875 31.4781 13.1269 31.0512 13.5269 30.3582C13.9273 29.6649 13.9273 28.8109 13.5269 28.118C13.1269 27.425 12.3874 26.9981 11.5871 26.9981L11.587 26.998Z" fill="white"/>
<path d="M11.5871 0.520996H6.12148C4.63628 0.520996 3.21208 1.11123 2.16168 2.1612C1.11168 3.2116 0.521484 4.6358 0.521484 6.121V11.5866C0.521484 12.387 0.948433 13.1264 1.64138 13.5264C2.33474 13.9268 3.18868 13.9268 3.88158 13.5264C4.57455 13.1264 5.00148 12.3869 5.00148 11.5866V6.121C5.00148 5.50264 5.50304 5.0011 6.12138 5.0011H11.587C12.3874 5.0011 13.1268 4.57415 13.5268 3.8812C13.9272 3.18823 13.9272 2.3343 13.5268 1.641C13.1268 0.948027 12.3873 0.521096 11.587 0.521096L11.5871 0.520996Z" fill="white"/>
<path d="M29.2381 18.173C28.6439 18.173 28.0744 18.4093 27.6541 18.8292C27.2342 19.2492 26.9982 19.8191 26.9982 20.4132V25.8788C26.9982 26.1757 26.8802 26.4605 26.6701 26.6706C26.4599 26.8808 26.1752 26.9988 25.8783 26.9988H20.4127C19.6123 26.9988 18.8729 27.4257 18.4729 28.1187C18.0725 28.8116 18.0725 29.6656 18.4729 30.3589C18.8729 31.0518 19.6124 31.4788 20.4127 31.4788H25.8783C27.3635 31.4788 28.7877 30.8885 29.8381 29.8386C30.8881 28.7882 31.4783 27.364 31.4783 25.8788V20.4132C31.4783 19.819 31.2424 19.2491 30.822 18.8292C30.4021 18.4092 29.8322 18.1729 29.238 18.1729L29.2381 18.173Z" fill="white"/>
</svg>
