<svg id="Layer_1" data-name="Layer 1" xmlns="http://www.w3.org/2000/svg" viewBox="0 0 696.67 610.03"><defs><style>.cls-1{fill:#fff;}.cls-2{fill:#ff473e;}</style></defs><title>icon--wallet</title><path class="cls-1" d="M642.09,567.66h55.64c5.84,50.64-31.16,98.2-83.46,97.93H85.68A83.53,83.53,0,0,1,2.21,582.13V315.88H57.86V582.13A27.9,27.9,0,0,0,85.68,610H614.27a27.9,27.9,0,0,0,27.82-27.82ZM697.73,246.9V512H642.09V246.9a27.9,27.9,0,0,0-27.82-27.82H85.68c-23.65.83-29.78,20.86-27.82,41.17H2.21c-5.56-50.36,31.72-97.09,83.47-96.81-1.39-29.22,20-54.81,49-58.15L552,56.05c32-4.46,62.88,22.81,62.32,55.08v52.3a83.71,83.71,0,0,1,83.46,83.46ZM141.32,163.44H558.63v-52.3L141.32,160.38v3.06Z" transform="translate(-1.66 -55.57)"/><g id="Page-1"><path id="Path" class="cls-2" d="M531.76,499.52a13.13,13.13,0,0,0-12.83,10.38l-49.53-2.36a14.23,14.23,0,0,0,.29-2.83,19.08,19.08,0,0,0-.76-5.09l18-10.38a13.35,13.35,0,1,0-1.51-2.36L468,497a18.24,18.24,0,0,0-33.68,13.86l-32.46,7.83a18,18,0,0,0-5.19-11.79l5.85-8.11a13.17,13.17,0,1,0-2.64-1.23L394.49,505a18.52,18.52,0,0,0-13.3-3.5l-5.56-31.79a18.21,18.21,0,1,0-12.46-33.87l-14.05-27.45a18.44,18.44,0,0,0,7.26-6.7l11.7,3.11a12.11,12.11,0,0,0-.19,1.89,13.3,13.3,0,0,0,12,13.21,13.2,13.2,0,1,0-11.13-17.83l-11-2.93a17.94,17.94,0,0,0,.85-11.32l32.55-15a18.3,18.3,0,0,0,24.9,3.49,18.11,18.11,0,0,0,4.72-24.62l20.76-20.29a18,18,0,0,0,8.39,2.83v9a13.13,13.13,0,1,0,2.83,0v-9a17.77,17.77,0,0,0,7.36-2.17L482.8,358a18.25,18.25,0,1,0,31.7,4.81l7.07-4a13.38,13.38,0,1,0-1.51-2.36l-6.69,3.77a18.19,18.19,0,0,0-28.59-4.34l-22.26-25.38a18.84,18.84,0,0,0,5.18-6.41l19.53,3.21A13.08,13.08,0,0,0,513,323a13.1,13.1,0,0,0-26.13,1.32l-18.12-3a18.25,18.25,0,1,0-29.62,8.4l-20.19,19.71a18.24,18.24,0,0,0-12.27-6.22V329.42a13.16,13.16,0,0,0,11.7-13.77,13,13,0,0,0-13-12.36,13.15,13.15,0,0,0-1.41,26.23V343.2a18.24,18.24,0,0,0-14.44,27.26L357.79,385a18.08,18.08,0,0,0-5.18-7L365,355.74a13,13,0,0,0,3.31.48,13.2,13.2,0,1,0-6-1.51l-12,21.7a18.25,18.25,0,1,0-3.68,33.11l14.24,27.83a18.09,18.09,0,0,0-7,10.94l-10.38-3a12.15,12.15,0,0,0,.38-3.21,13.14,13.14,0,1,0-1.41,5.94l11,3.21v.85a17.92,17.92,0,0,0,8.4,15.28l-7.07,9.25a12.83,12.83,0,1,0,2,2.07l7.64-10a17.67,17.67,0,0,0,7.36,1.51,4.83,4.83,0,0,0,1.13-.09l5.66,32a18.47,18.47,0,0,0-13.11,17,18.24,18.24,0,0,0,32.73,11.51l26.42,11.8a15.37,15.37,0,0,0-.38,2.92,13.19,13.19,0,1,0,1.32-5.66l-25.75-11.51a16.9,16.9,0,0,0,2.07-6.7l33.59-8.21a18.15,18.15,0,0,0,27.26,5.57l12.55,10.85a13.18,13.18,0,0,0,23.3,12.26,13.19,13.19,0,0,0-21.79-14.81l-12-10.28a18.66,18.66,0,0,0,4-6.7l49.91,2.45a13.12,13.12,0,1,0,13.11-13Z" transform="translate(-1.66 -55.57)"/></g></svg>