<svg width="140" height="120" viewBox="0 0 140 120" fill="none" xmlns="http://www.w3.org/2000/svg">
<path d="M108.245 101.799L119.888 91.121L139.298 108.922L127.654 119.6L108.245 101.799Z" fill="#F9F871"/>
<path d="M9.27271 0.356689L11.2154 19.938L46.3555 52.1693L65.7642 34.3696L30.6194 2.13828L9.27271 0.356689Z" fill="#F9F871"/>
<path d="M123.77 73.3282L116.008 80.4456L92.9395 59.289L73.5308 77.0836L96.5997 98.2453L88.839 105.364L92.7198 108.923L127.651 76.8873L123.77 73.3282Z" fill="#F9F871"/>
<path d="M0 108.922L19.4096 91.121L31.0529 101.799L11.6433 119.6L0 108.922Z" fill="#F9F871"/>
<path d="M128.079 19.938L130.022 0.356689L108.676 2.13832L23.2856 80.4435L15.5239 73.3261L11.6431 76.8853L46.5743 108.921L50.4551 105.362L42.6943 98.2433L128.079 19.938Z" fill="#F9F871"/>
</svg>
