<svg xmlns="http://www.w3.org/2000/svg" viewBox="0 0 28 28"><defs><style>.cls-1{fill:#010101;}.cls-2{fill:#fff;}</style></defs><g id="Layer_2" data-name="Layer 2"><g id="Layer_1-2" data-name="Layer 1"><circle class="cls-1" cx="14" cy="14" r="14"/><path class="cls-2" d="M20.82,8.31c-.06-.15-.12-.2-.22-.23a1.05,1.05,0,0,0-.59,0S6.93,12.82,6.18,13.34c-.16.11-.22.18-.24.26a.43.43,0,0,0,.27.53l3.37,1.1s.13,0,.17,0c.77-.49,7.72-4.88,8.12-5,.07,0,.11,0,.1,0-.16.57-6.2,5.93-6.2,5.93l0,.07h0l-.32,3.35s-.13,1,.89,0c.73-.73,1.43-1.33,1.78-1.63,1.16.8,2.41,1.69,2.94,2.15a1,1,0,0,0,.69.27c.51,0,.65-.58.65-.58s2.39-9.6,2.46-10.89c0-.12,0-.2,0-.29A1.24,1.24,0,0,0,20.82,8.31Z"/></g></g></svg>