<svg xmlns="http://www.w3.org/2000/svg" viewBox="0 0 28 28"><defs><style>.cls-1{fill:#010101;}.cls-2{fill:#fff;}</style></defs><g id="Layer_2" data-name="Layer 2"><g id="Layer_1-2" data-name="Layer 1"><circle class="cls-1" cx="14" cy="14" r="14"/><path class="cls-2" d="M15.08,12.09a9.62,9.62,0,0,1,.66-.74,3.55,3.55,0,0,1,2.59-1,5.89,5.89,0,0,1,1.62.19,3.2,3.2,0,0,1,2.26,2.38,10,10,0,0,1,.3,2.72c0,1.93,0,3.87,0,5.8,0,.18-.05.23-.23.23h-3c-.17,0-.21,0-.21-.22q0-2.76,0-5.52a4.89,4.89,0,0,0-.16-1.37,1.53,1.53,0,0,0-1.69-1.2,1.86,1.86,0,0,0-2,1.85,6.11,6.11,0,0,0,0,.86v5.37c0,.18,0,.23-.22.23H12c-.16,0-.2,0-.2-.21V10.81c0-.17.05-.21.22-.21h2.86c.18,0,.22.05.22.22C15.08,11.24,15.08,11.67,15.08,12.09Z"/><path class="cls-2" d="M9.62,16.14c0,1.75,0,3.51,0,5.26,0,.19-.05.25-.25.25h-3c-.16,0-.21,0-.21-.21q0-5.31,0-10.64c0-.15,0-.2.2-.2h3c.19,0,.22.07.22.24C9.62,12.6,9.62,14.37,9.62,16.14Z"/><path class="cls-2" d="M9.9,7.08a2,2,0,1,1-2-2A2,2,0,0,1,9.9,7.08Z"/></g></g></svg>