<svg width="148" height="40" viewBox="0 0 148 40" fill="none" xmlns="http://www.w3.org/2000/svg">
<g clip-path="url(#clip0)">
<path d="M124.181 13.5332C125.594 17.3892 126.984 21.2676 128.396 25.1236H131.288L135.503 13.5332H132.768C131.781 16.6046 130.727 19.7432 129.898 22.5231H129.853C128.911 19.4966 127.925 16.5821 126.961 13.5332H124.181Z" fill="white"/>
<path d="M147.153 19.5408C147.131 16.2677 145.517 13.2188 141.572 13.2188C138.186 13.2188 135.72 15.7745 135.72 19.2942C135.72 22.9484 138.097 25.4369 141.572 25.4369C144.307 25.4369 146.302 24.0469 146.997 21.693H144.419C143.993 22.8587 142.894 23.352 141.572 23.352C139.755 23.352 138.41 22.1414 138.232 20.034H147.153V19.5408ZM138.276 18.1508C138.545 16.3798 139.755 15.2364 141.549 15.2364C143.342 15.2364 144.396 16.3349 144.576 18.1508H138.276Z" fill="white"/>
<path d="M122.935 11.7169V9.16113H120.223V11.7169H122.935ZM120.29 25.1232H122.868V13.5328H120.29V25.1232Z" fill="white"/>
<path d="M115.349 9.11621V25.1231H117.95V9.11621H115.349Z" fill="white"/>
<path d="M107.907 27.5346C109.962 27.5346 111.628 25.8687 111.628 23.8137C111.628 21.7587 109.962 20.0928 107.907 20.0928C105.852 20.0928 104.186 21.7587 104.186 23.8137C104.186 25.8687 105.852 27.5346 107.907 27.5346Z" fill="#FF0012"/>
<path d="M3.72093 28.0932C5.77594 28.0932 7.44186 26.4273 7.44186 24.3723C7.44186 22.3173 5.77594 20.6514 3.72093 20.6514C1.66592 20.6514 0 22.3173 0 24.3723C0 26.4273 1.66592 28.0932 3.72093 28.0932Z" fill="#FF0012"/>
<path d="M24.186 7.44186C26.241 7.44186 27.9069 5.77594 27.9069 3.72093C27.9069 1.66592 26.241 0 24.186 0C22.131 0 20.4651 1.66592 20.4651 3.72093C20.4651 5.77594 22.131 7.44186 24.186 7.44186Z" fill="#FF0012"/>
<path d="M20.4651 40.0005C22.5201 40.0005 24.186 38.3345 24.186 36.2795C24.186 34.2245 22.5201 32.5586 20.4651 32.5586C18.4101 32.5586 16.7441 34.2245 16.7441 36.2795C16.7441 38.3345 18.4101 40.0005 20.4651 40.0005Z" fill="#FF0012"/>
<path d="M86.4958 25.1158H89.4911V18.1847H92.115C94.2687 18.1847 94.9617 19.3728 95.531 21.0066C96.0259 22.4424 96.2733 24.0514 97.091 25.1158H100.309C99.4175 23.9276 99.1449 22.5909 98.6249 20.9819C98.0063 18.9273 97.437 17.6154 95.9273 17.1203C98.0063 16.6004 99.4668 14.7438 99.4668 12.4665C99.4668 9.57024 97.264 7.44141 93.2287 7.44141H86.4958V25.1158ZM89.4911 15.7093V9.8921H92.9814C95.5059 9.8921 96.4966 11.1298 96.4966 12.6893C96.4966 14.521 95.3087 15.7093 93.0808 15.7093H89.4911Z" fill="white"/>
<path fill-rule="evenodd" clip-rule="evenodd" d="M103.564 25.1163H108V23.2559H102.191C102.252 23.3562 102.318 23.4544 102.392 23.5535L103.564 25.1163Z" fill="#FF0012"/>
<path d="M86.4958 25.1158H89.4911V18.1847H92.115C94.2687 18.1847 94.9617 19.3728 95.531 21.0066C96.0259 22.4424 96.2733 24.0514 97.091 25.1158H100.309C99.4175 23.9276 99.1449 22.5909 98.6249 20.9819C98.0063 18.9273 97.437 17.6154 95.9273 17.1203C98.0063 16.6004 99.4668 14.7438 99.4668 12.4665C99.4668 9.57024 97.264 7.44141 93.2287 7.44141H86.4958V25.1158ZM89.4911 15.7093V9.8921H92.9814C95.5059 9.8921 96.4966 11.1298 96.4966 12.6893C96.4966 14.521 95.3087 15.7093 93.0808 15.7093H89.4911Z" fill="white"/>
<path d="M54.458 19.7134H51.4712C50.7494 21.6549 49.1813 22.9491 46.2692 22.9491C42.4859 22.9491 40.221 19.9873 40.221 16.2786C40.221 12.57 42.4859 9.60813 46.2692 9.60813C48.9822 9.60813 50.5254 10.7033 51.4712 12.8438H54.458C53.3628 9.38413 50.7494 7.06934 46.2692 7.06934C40.7187 7.06934 37.2092 11.0518 37.2092 16.2786C37.2092 21.5553 40.6938 25.4879 46.2443 25.4879C50.6997 25.4879 53.6367 23.0238 54.458 19.7134Z" fill="white"/>
<path fill-rule="evenodd" clip-rule="evenodd" d="M15.7306 24.5709L22.5921 9.47565L19.5409 36.1734L19.1607 39.5005L21.2024 36.8462L30.2255 25.1162H38.2224C38.0638 24.9689 37.9095 24.8164 37.7596 24.659C37.3424 24.2211 36.966 23.7519 36.6307 23.2557H29.7675H29.3094L29.0302 23.6188L21.7696 33.0575L25.1103 3.8265L23.3392 3.33594L14.2848 23.2557H3.72095V25.1162H14.8837H15.4827L15.7306 24.5709Z" fill="#FF0012"/>
<path d="M54.458 19.7134H51.4712C50.7494 21.6549 49.1813 22.9491 46.2692 22.9491C42.4859 22.9491 40.221 19.9873 40.221 16.2786C40.221 12.57 42.4859 9.60813 46.2692 9.60813C48.9822 9.60813 50.5254 10.7033 51.4712 12.8438H54.458C53.3628 9.38413 50.7494 7.06934 46.2692 7.06934C40.7187 7.06934 37.2092 11.0518 37.2092 16.2786C37.2092 21.5553 40.6938 25.4879 46.2443 25.4879C50.6997 25.4879 53.6367 23.0238 54.458 19.7134Z" fill="white"/>
<path d="M78.3611 7.44141H72.0488V25.1158H75.0441V18.4817H78.3611C82 18.4817 84.6239 16.0806 84.6239 12.8873C84.6239 9.76829 82.198 7.44141 78.3611 7.44141ZM78.1136 15.9816H75.0441V9.94159H78.1136C80.3415 9.94159 81.6287 10.9317 81.6287 12.9121C81.6287 14.8924 80.3415 15.9816 78.1136 15.9816Z" fill="white"/>
<path d="M66.1997 12.6836H69.1792C68.9576 8.84225 66.3968 7.06934 62.8262 7.06934C59.6498 7.06934 56.498 8.74375 56.5472 12.1172C56.5965 15.5646 59.5759 16.5987 62.4815 17.3867C64.7223 18.0023 66.6922 18.3717 66.6922 20.2923C66.6922 22.1145 64.9686 23.001 62.9986 23.001C60.7087 23.001 59.0342 21.7205 58.9604 19.3566H55.907C56.104 23.5426 59.1081 25.4879 62.9986 25.4879C66.2244 25.4879 69.6471 23.8627 69.6471 20.2677C69.6471 16.5002 66.446 15.7615 63.4665 14.949C61.1765 14.3333 59.5267 13.6685 59.5267 12.0926C59.5267 10.295 61.0534 9.55631 62.777 9.55631C64.8947 9.55631 65.9781 10.5905 66.1997 12.6836Z" fill="white"/>
</g>
<defs>
<clipPath id="clip0">
<rect width="147.163" height="40" fill="white"/>
</clipPath>
</defs>
</svg>
