<?xml version="1.0" encoding="UTF-8"?>
<svg width="700pt" height="700pt" version="1.1" viewBox="0 0 700 700" xmlns="http://www.w3.org/2000/svg">
 <g>
  <path d="m560 143.59h-41.277v-73.59c0-7.2734-3.3906-14.129-9.168-18.543-5.7812-4.418-13.289-5.8828-20.305-3.9688l-355.39 96.922c-0.55469 0.15234-0.96875 0.53516-1.5039 0.72266-1.2148 0.45703-2.3867 1.0234-3.5 1.6875-6.668 3.5508-11.078 10.242-11.711 17.77-0.19922 0.76562-0.35156 1.5469-0.46484 2.332v323.08c0 6.1875 2.457 12.125 6.832 16.5s10.312 6.832 16.5 6.832h419.99c6.1875 0 12.125-2.457 16.5-6.832s6.832-10.312 6.832-16.5v-323.08c0-6.1875-2.457-12.125-6.832-16.5s-10.312-6.832-16.5-6.832zm-87.941-43.043v43.043h-157.82zm64.609 366.12h-373.34v-276.41h373.34z"/>
  <path d="m430.77 256.67c-6.1875 0-12.121 2.457-16.5 6.832-4.375 4.375-6.832 10.312-6.832 16.5v96.922c0 6.1875 2.457 12.125 6.832 16.5 4.3789 4.375 10.312 6.832 16.5 6.832h48.469c8.3359 0 16.039-4.4453 20.207-11.664 4.168-7.2188 4.168-16.113 0-23.336-4.168-7.2188-11.871-11.664-20.207-11.664h-25.137v-50.258h25.137c8.3359 0 16.039-4.4453 20.207-11.664 4.168-7.2188 4.168-16.117 0-23.336-4.168-7.2188-11.871-11.664-20.207-11.664z"/>
 </g>
</svg>
