<svg width="11" height="212" viewBox="0 0 11 212" fill="none" xmlns="http://www.w3.org/2000/svg">
<path d="M5.5 0.666667C2.55448 0.666667 0.166667 3.05448 0.166667 6C0.166667 8.94552 2.55448 11.3333 5.5 11.3333C8.44552 11.3333 10.8333 8.94552 10.8333 6C10.8333 3.05448 8.44552 0.666667 5.5 0.666667ZM5.5 200.667C2.55448 200.667 0.166667 203.054 0.166667 206C0.166667 208.946 2.55448 211.333 5.5 211.333C8.44552 211.333 10.8333 208.946 10.8333 206C10.8333 203.054 8.44552 200.667 5.5 200.667ZM4.5 6L4.5 206H6.5L6.5 6H4.5Z" fill="#FFB356"/>
</svg>
